<svg width="32" height="32" viewBox="0 0 32 32" fill="none" xmlns="http://www.w3.org/2000/svg">
<g clip-path="url(#clip0_709_61480)">
<path d="M31.375 27.375H30.75V10.9332C30.75 8.6955 28.9295 6.875 26.6918 6.875H23.6366C23.2336 3.01725 19.9626 0 16 0C12.0374 0 8.76644 3.01725 8.36337 6.875H5.30819C3.0705 6.875 1.25 8.6955 1.25 10.9332V27.375H0.625C0.279813 27.375 0 27.6549 0 28C0 30.2056 1.79437 32 4 32H28C30.2056 32 32 30.2056 32 28C32 27.6549 31.7201 27.375 31.375 27.375ZM16 1.25C19.5448 1.25 22.4286 4.13387 22.4286 7.67856C22.4286 11.2233 19.5447 14.1071 16 14.1071C12.4553 14.1071 9.57144 11.2232 9.57144 7.67856C9.57144 4.13387 12.4553 1.25 16 1.25ZM5.34369 24.625V15.375H11.6146V24.625H5.34369ZM12.8646 15.375H19.1354V24.625H12.8646V15.375ZM20.3854 15.375H26.6563V24.625H20.3854V15.375ZM28 30.75H4C2.69856 30.75 1.60538 29.8413 1.32162 28.625H12.7656C13.1107 28.625 13.3906 28.3451 13.3906 28C13.3906 27.6549 13.1107 27.375 12.7656 27.375H2.5V10.9332C2.5 9.38475 3.75975 8.125 5.30819 8.125H8.33475C8.47956 10.6384 9.83856 12.8314 11.8328 14.125H4.71869C4.3735 14.125 4.09369 14.4049 4.09369 14.75V25.25C4.09369 25.5951 4.3735 25.875 4.71869 25.875H27.2813C27.6264 25.875 27.9063 25.5951 27.9063 25.25V14.75C27.9063 14.4049 27.6264 14.125 27.2813 14.125H20.1672C22.1615 12.8314 23.5204 10.6384 23.6653 8.125H26.6918C28.2402 8.125 29.5 9.38475 29.5 10.9332V27.375H18.3905C18.0454 27.375 17.7655 27.6549 17.7655 28C17.7655 28.3451 18.0454 28.625 18.3905 28.625H30.6783C30.3946 29.8413 29.3014 30.75 28 30.75Z" fill="white"/>
<path d="M10.2989 17.1495C10.1827 16.9779 9.98881 16.875 9.78149 16.875H7.28149C6.93631 16.875 6.65649 17.1549 6.65649 17.5C6.65649 17.8451 6.93631 18.125 7.28149 18.125H8.85874L7.20343 22.2681C7.07537 22.5887 7.23137 22.9523 7.55193 23.0804C7.62793 23.1108 7.70643 23.1252 7.78362 23.1252C8.03174 23.1252 8.26649 22.9764 8.36418 22.7319L10.3619 17.7319C10.4388 17.5394 10.4152 17.3212 10.2989 17.1495Z" fill="white"/>
<path d="M17.7987 17.1495C17.6824 16.9779 17.4886 16.875 17.2812 16.875H14.7812C14.4361 16.875 14.1562 17.1549 14.1562 17.5C14.1562 17.8451 14.4361 18.125 14.7812 18.125H16.3585L14.7032 22.2681C14.5751 22.5887 14.7311 22.9523 15.0517 23.0804C15.1277 23.1108 15.2062 23.1252 15.2834 23.1252C15.5315 23.1252 15.7662 22.9764 15.8639 22.7319L17.8616 17.7319C17.9386 17.5393 17.915 17.3212 17.7987 17.1495Z" fill="white"/>
<path d="M24.7812 16.875H22.2812C21.9361 16.875 21.6562 17.1549 21.6562 17.5C21.6562 17.8451 21.9361 18.125 22.2812 18.125H23.8585L22.2032 22.2681C22.0752 22.5887 22.2312 22.9523 22.5518 23.0804C22.6278 23.1108 22.7063 23.1252 22.7834 23.1252C23.0316 23.1252 23.2664 22.9764 23.364 22.7319L25.3616 17.7319C25.4386 17.5393 25.415 17.3212 25.2987 17.1495C25.1824 16.9779 24.9886 16.875 24.7812 16.875Z" fill="white"/>
<path d="M14.5063 9.56484C14.5063 9.21972 14.2265 8.93984 13.8813 8.93984C13.5362 8.93984 13.2563 9.21972 13.2563 9.56484C13.2563 10.7701 14.1625 11.7818 15.3752 12.0453V12.3613C15.3752 12.7064 15.655 12.9863 16.0002 12.9863C16.3453 12.9863 16.6252 12.7064 16.6252 12.3613V12.0453C17.8378 11.7818 18.744 10.7701 18.744 9.56484C18.744 8.35959 17.8378 7.34784 16.6252 7.08434V4.54053C17.1375 4.74647 17.494 5.19703 17.494 5.71891C17.494 6.06403 17.7738 6.34391 18.119 6.34391C18.4641 6.34391 18.744 6.06403 18.744 5.71891C18.744 4.51366 17.8378 3.50197 16.6252 3.23847V2.99609C16.6252 2.65097 16.3453 2.37109 16.0002 2.37109C15.655 2.37109 15.3752 2.65097 15.3752 2.99609V3.23847C14.1625 3.50197 13.2563 4.51366 13.2563 5.71891C13.2563 6.92416 14.1625 7.93584 15.3752 8.19934V10.7432C14.8628 10.5373 14.5063 10.0867 14.5063 9.56484ZM17.494 9.56484C17.494 10.0867 17.1375 10.5373 16.6252 10.7432V8.38634C17.1375 8.59234 17.494 9.04297 17.494 9.56484ZM14.5063 5.71897C14.5063 5.19709 14.8628 4.74647 15.3752 4.54059V6.89741C14.8628 6.69147 14.5063 6.24084 14.5063 5.71897Z" fill="white"/>
<path d="M15.5781 28.625C15.9233 28.625 16.2031 28.3452 16.2031 28C16.2031 27.6548 15.9233 27.375 15.5781 27.375C15.2329 27.375 14.9531 27.6548 14.9531 28C14.9531 28.3452 15.2329 28.625 15.5781 28.625Z" fill="white"/>
</g>
<defs>
<clipPath id="clip0_709_61480">
<rect width="32" height="32" fill="white"/>
</clipPath>
</defs>
</svg>
