<svg width="32" height="32" viewBox="0 0 32 32" fill="none" xmlns="http://www.w3.org/2000/svg">
<g clip-path="url(#clip0_709_61522)">
<path d="M31.3984 23.0461C31.3984 23.046 31.3984 23.046 31.3984 23.0461L26.5053 18.1529V3.12498C26.5053 1.40186 25.1035 0 23.3804 0H3.12571C1.4026 0 0.000732422 1.40186 0.000732422 3.12498V28.8748C0.000732422 30.5979 1.4026 31.9997 3.12571 31.9997C3.12571 31.9997 24.5171 32.0003 24.5279 31.9997C25.0451 31.9929 25.5602 31.7914 25.9539 31.3977L31.3984 25.9531C32.1999 25.1517 32.1999 23.8475 31.3984 23.0461ZM1.25072 28.8748V3.12498C1.25072 2.09111 2.09184 1.24999 3.12571 1.24999H23.3804C24.4142 1.24999 25.2553 2.09111 25.2553 3.12498V17.1436C24.8564 16.9867 24.4182 16.9588 24.0054 17.0606V3.12498C24.0054 2.77985 23.7255 2.49998 23.3804 2.49998H16.081C15.7359 2.49998 15.456 2.77985 15.456 3.12498C15.456 3.4701 15.7359 3.74997 16.081 3.74997H22.7554V17.8929L18.2735 22.3748C18.2759 22.3523 18.2774 22.3294 18.2774 22.3063V19.3063C18.2774 18.9612 17.9975 18.6814 17.6524 18.6814H16.8277C16.1324 17.8664 15.7279 16.8516 15.672 15.7836C16.4939 15.3302 17.1753 14.6532 17.6351 13.8353C19.5592 13.6838 21.0788 12.0708 21.0788 10.1084V9.1198C21.0788 8.45868 20.5409 7.92075 19.8798 7.92075H18.2773V7.19344C18.2773 6.84832 17.9975 6.56845 17.6523 6.56845H8.85366C8.50854 6.56845 8.22867 6.84832 8.22867 7.19344V7.92075H6.62631C5.96519 7.92075 5.42725 8.45862 5.42725 9.1198V10.1084C5.42725 12.0708 6.94693 13.6838 8.87104 13.8353C9.33085 14.6531 10.0122 15.3302 10.8341 15.7836C10.7782 16.8517 10.3737 17.8666 9.67841 18.6814H8.85366C8.50854 18.6814 8.22867 18.9613 8.22867 19.3064V22.3064C8.22867 22.6515 8.50854 22.9314 8.85366 22.9314H17.6523C17.6755 22.9314 17.6983 22.9299 17.7208 22.9275L17.6022 23.0461C16.8652 23.783 16.8064 24.9444 17.4245 25.7499H3.7507V3.74997H10.4561C10.8012 3.74997 11.0811 3.4701 11.0811 3.12498C11.0811 2.77985 10.8012 2.49998 10.4561 2.49998H3.12571C2.78059 2.49998 2.50071 2.77985 2.50071 3.12498V26.3748C2.50071 26.7199 2.78059 26.9998 3.12571 26.9998H18.6488L22.3989 30.7498H3.12571C2.09184 30.7498 1.25072 29.9086 1.25072 28.8748ZM9.47872 19.9313H17.0274V21.6813H9.47872V19.9313ZM8.34611 12.4584C7.37549 12.1183 6.67724 11.1937 6.67724 10.1084V9.17068H8.22867V11.3815C8.22873 11.7512 8.26998 12.1113 8.34611 12.4584ZM9.47872 11.3815V7.81838H17.0274V11.3815C17.0274 13.4627 15.3342 15.1559 13.2531 15.1559C11.1718 15.1559 9.47872 13.4627 9.47872 11.3815ZM18.2774 9.17068H19.8288V10.1084C19.8288 11.1936 19.1306 12.1183 18.16 12.4584C18.2361 12.1112 18.2774 11.7512 18.2774 11.3815V9.17068ZM13.2531 16.4059C13.6691 16.4059 14.0731 16.3541 14.4599 16.2584C14.5629 17.1188 14.8466 17.9432 15.2921 18.6814H11.214C11.6595 17.9431 11.9431 17.1188 12.0462 16.2583C12.4331 16.3541 12.8371 16.4059 13.2531 16.4059ZM30.5146 25.0692L25.0701 30.5138C24.7559 30.8277 24.2448 30.8278 23.9307 30.5138L18.4862 25.0692C18.334 24.9171 18.2502 24.7147 18.2502 24.4996C18.2502 24.2844 18.3341 24.0821 18.4862 23.9299L23.9307 18.4854C24.0829 18.3332 24.2852 18.2494 24.5004 18.2494C24.7155 18.2494 24.9179 18.3333 25.07 18.4854L30.5146 23.9299C30.8286 24.244 30.8286 24.7552 30.5146 25.0692Z" fill="white"/>
<path d="M13.2688 3.75C13.614 3.75 13.8938 3.47018 13.8938 3.125C13.8938 2.77982 13.614 2.5 13.2688 2.5C12.9236 2.5 12.6438 2.77982 12.6438 3.125C12.6438 3.47018 12.9236 3.75 13.2688 3.75Z" fill="white"/>
<path d="M24.4956 22.1445C24.8408 22.1445 25.1206 21.8647 25.1206 21.5195C25.1206 21.1744 24.8408 20.8945 24.4956 20.8945C24.1504 20.8945 23.8706 21.1744 23.8706 21.5195C23.8706 21.8647 24.1504 22.1445 24.4956 22.1445Z" fill="white"/>
<path d="M24.4956 25.1211C24.8408 25.1211 25.1206 24.8413 25.1206 24.4961C25.1206 24.1509 24.8408 23.8711 24.4956 23.8711C24.1504 23.8711 23.8706 24.1509 23.8706 24.4961C23.8706 24.8413 24.1504 25.1211 24.4956 25.1211Z" fill="white"/>
<path d="M27.48 25.1211C27.8252 25.1211 28.105 24.8413 28.105 24.4961C28.105 24.1509 27.8252 23.8711 27.48 23.8711C27.1348 23.8711 26.855 24.1509 26.855 24.4961C26.855 24.8413 27.1348 25.1211 27.48 25.1211Z" fill="white"/>
<path d="M21.5205 25.1211C21.8657 25.1211 22.1455 24.8413 22.1455 24.4961C22.1455 24.1509 21.8657 23.8711 21.5205 23.8711C21.1753 23.8711 20.8955 24.1509 20.8955 24.4961C20.8955 24.8413 21.1753 25.1211 21.5205 25.1211Z" fill="white"/>
<path d="M13.2532 29.5C13.5984 29.5 13.8782 29.2202 13.8782 28.875C13.8782 28.5298 13.5984 28.25 13.2532 28.25C12.908 28.25 12.6282 28.5298 12.6282 28.875C12.6282 29.2202 12.908 29.5 13.2532 29.5Z" fill="white"/>
<path d="M24.4956 28.0938C24.8408 28.0938 25.1206 27.8139 25.1206 27.4688C25.1206 27.1236 24.8408 26.8438 24.4956 26.8438C24.1504 26.8438 23.8706 27.1236 23.8706 27.4688C23.8706 27.8139 24.1504 28.0938 24.4956 28.0938Z" fill="white"/>
</g>
<defs>
<clipPath id="clip0_709_61522">
<rect width="32" height="32" fill="white"/>
</clipPath>
</defs>
</svg>
