<svg width="32" height="32" viewBox="0 0 32 32" fill="none" xmlns="http://www.w3.org/2000/svg">
<g clip-path="url(#clip0_709_61508)">
<path d="M22.3125 2.5H14.543C14.1978 2.5 13.918 2.77988 13.918 3.125C13.918 3.47012 14.1978 3.75 14.543 3.75H22.3125C22.6577 3.75 22.9375 3.47012 22.9375 3.125C22.9375 2.77988 22.6577 2.5 22.3125 2.5Z" fill="white"/>
<path d="M11.1562 15.5742H15.1562C15.5014 15.5742 15.7812 15.2943 15.7812 14.9492V9.32422C15.7812 8.97909 15.5014 8.69922 15.1562 8.69922H11.1562C10.8111 8.69922 10.5312 8.97909 10.5312 9.32422V14.9492C10.5312 15.2944 10.8111 15.5742 11.1562 15.5742ZM11.7812 9.94922H14.5312V14.3242H11.7812V9.94922Z" fill="white"/>
<path d="M4.65747 15.5742H8.65747C9.00266 15.5742 9.28247 15.2943 9.28247 14.9492V9.32422C9.28247 8.97909 9.00266 8.69922 8.65747 8.69922H4.65747C4.31228 8.69922 4.03247 8.97909 4.03247 9.32422V14.9492C4.03247 15.2944 4.31228 15.5742 4.65747 15.5742ZM5.28247 9.94922H8.03247V14.3242H5.28247V9.94922Z" fill="white"/>
<path d="M4.03247 23.0898C4.03247 23.435 4.31228 23.7148 4.65747 23.7148H8.65747C9.00266 23.7148 9.28247 23.435 9.28247 23.0898V17.4648C9.28247 17.1197 9.00266 16.8398 8.65747 16.8398H4.65747C4.31228 16.8398 4.03247 17.1197 4.03247 17.4648V23.0898ZM5.28247 18.0898H8.03247V22.4648H5.28247V18.0898Z" fill="white"/>
<path d="M15.7812 23.0898V17.4648C15.7812 17.1197 15.5014 16.8398 15.1562 16.8398H11.1562C10.8111 16.8398 10.5312 17.1197 10.5312 17.4648V23.0898C10.5312 23.435 10.8111 23.7148 11.1562 23.7148H15.1562C15.5014 23.7148 15.7812 23.435 15.7812 23.0898ZM14.5312 22.4648H11.7812V18.0898H14.5312V22.4648Z" fill="white"/>
<path d="M29.3688 24.2505L26.6746 23.5427C27.4777 22.7466 27.976 21.6436 27.976 20.4261V17.8757C28.3729 17.3586 28.6096 16.7124 28.6096 16.0116V14.3021C28.6096 13.957 28.3297 13.6771 27.9846 13.6771H26.3125V0.625C26.3125 0.279875 26.0326 0 25.6875 0H0.625C0.279813 0 0 0.279875 0 0.625V28C0 28.3451 0.279813 28.625 0.625 28.625H6.86481C7.21 28.625 7.48981 28.3451 7.48981 28C7.48981 27.6549 7.21 27.375 6.86481 27.375H1.25V6.25H25.0625V13.6772H22.5151C22.436 13.6772 22.3578 13.681 22.2801 13.6864V9.32519C22.2801 8.98006 22.0002 8.70019 21.6551 8.70019H17.6551C17.3099 8.70019 17.0301 8.98006 17.0301 9.32519V14.9502C17.0301 15.2953 17.3099 15.5752 17.6551 15.5752H19.5152C19.3097 16.0067 19.1943 16.4891 19.1943 16.9979V20.4261C19.1943 21.6436 19.6926 22.7466 20.4957 23.5427L17.8016 24.2506C16.3458 24.633 15.3027 25.8951 15.1822 27.3751H12.4898C12.1446 27.3751 11.8648 27.6549 11.8648 28.0001C11.8648 28.3452 12.1446 28.6251 12.4898 28.6251H15.1703V31.3751C15.1703 31.7202 15.4501 32.0001 15.7953 32.0001H31.375C31.7201 32.0001 32 31.7202 32 31.3751V27.6623C32 26.0605 30.918 24.6576 29.3688 24.2505ZM1.25 5V1.25H25.0625V5H1.25ZM24.9763 24.6288L24.976 25.9449L24.2162 25.2868L24.9763 24.6288ZM22.9543 25.2867L22.1941 25.9447L22.1944 24.6286L22.9543 25.2867ZM27.3596 14.9272V16.0116C27.3596 17.0144 26.5438 17.8302 25.5409 17.8302H20.4443V16.998C20.4443 15.8562 21.3732 14.9272 22.5151 14.9272L27.3596 14.9272ZM18.2801 9.95019H21.0301V14.0291C20.8604 14.1143 20.6987 14.2133 20.5471 14.3252H18.2801V9.95019ZM20.4443 20.4261V19.0801H25.5409C25.9608 19.0801 26.3612 18.9952 26.726 18.8419V20.4261C26.726 22.158 25.3171 23.567 23.5852 23.567C21.8533 23.567 20.4443 22.1579 20.4443 20.4261ZM30.75 30.75H16.4204V27.6623C16.4204 26.6281 17.119 25.7222 18.1192 25.4595L20.9441 24.7174V25.9491C20.9441 26.4439 21.2236 26.8789 21.6736 27.0844C21.8426 27.1616 22.0203 27.1995 22.1962 27.1995C22.4886 27.1995 22.7759 27.0949 23.0094 26.8927L23.5853 26.394L24.1611 26.8927C24.3946 27.0949 24.6818 27.1996 24.9743 27.1996C25.1501 27.1996 25.3278 27.1617 25.4968 27.0845C25.9468 26.8789 26.2264 26.4439 26.2264 25.9492V24.7174L29.0513 25.4596C30.0514 25.7222 30.75 26.6281 30.75 27.6623V30.75Z" fill="white"/>
<path d="M4 3.75C4.34518 3.75 4.625 3.47018 4.625 3.125C4.625 2.77982 4.34518 2.5 4 2.5C3.65482 2.5 3.375 2.77982 3.375 3.125C3.375 3.47018 3.65482 3.75 4 3.75Z" fill="white"/>
<path d="M7.25757 3.75C7.60275 3.75 7.88257 3.47018 7.88257 3.125C7.88257 2.77982 7.60275 2.5 7.25757 2.5C6.91239 2.5 6.63257 2.77982 6.63257 3.125C6.63257 3.47018 6.91239 3.75 7.25757 3.75Z" fill="white"/>
<path d="M10.5149 3.75C10.8601 3.75 11.1399 3.47018 11.1399 3.125C11.1399 2.77982 10.8601 2.5 10.5149 2.5C10.1697 2.5 9.88989 2.77982 9.88989 3.125C9.88989 3.47018 10.1697 3.75 10.5149 3.75Z" fill="white"/>
<path d="M9.67749 28.625C10.0227 28.625 10.3025 28.3452 10.3025 28C10.3025 27.6548 10.0227 27.375 9.67749 27.375C9.33231 27.375 9.05249 27.6548 9.05249 28C9.05249 28.3452 9.33231 28.625 9.67749 28.625Z" fill="white"/>
<path d="M23.585 29.5C23.9301 29.5 24.21 29.2202 24.21 28.875C24.21 28.5298 23.9301 28.25 23.585 28.25C23.2398 28.25 22.96 28.5298 22.96 28.875C22.96 29.2202 23.2398 29.5 23.585 29.5Z" fill="white"/>
</g>
<defs>
<clipPath id="clip0_709_61508">
<rect width="32" height="32" fill="white"/>
</clipPath>
</defs>
</svg>
