<svg width="48" height="44" viewBox="0 0 48 44" fill="none" xmlns="http://www.w3.org/2000/svg">
<circle cx="40" cy="12" r="8" fill="#FA5926"/>
<path d="M36.539 14.57V13.052L40.015 8.08H42.116V12.942H43.018V14.57H42.116V16H40.235V14.57H36.539ZM40.367 10.148L38.519 12.942H40.367V10.148Z" fill="white"/>
<g clip-path="url(#clip0_706_44740)">
<path d="M31.641 29.1842C32.0885 27.9546 32.0305 26.6243 31.4775 25.4383C30.3358 22.9901 27.4153 21.9272 24.9672 23.0687L22.2087 24.355L24.7019 22.6093C26.9146 21.0599 27.4543 17.9991 25.905 15.7864C24.4896 13.765 21.8127 13.1397 19.6733 14.2281C19.098 13.3404 18.2541 12.6662 17.2426 12.298C16.013 11.8505 14.6826 11.9086 13.4967 12.4616C11.0485 13.6032 9.9855 16.5237 11.1271 18.9719L12.4133 21.7302L10.6677 19.2371C9.80482 18.0048 8.44781 17.2465 6.94463 17.1565C6.59958 17.1357 6.30403 17.3984 6.28341 17.743C6.26278 18.0875 6.52534 18.3836 6.86988 18.4042C7.98996 18.4713 9.00104 19.0362 9.6437 19.954L13.8798 26.0037C13.7139 26.1846 13.5701 26.3882 13.4537 26.6113L8.53212 25.2925C8.19858 25.203 7.85597 25.401 7.76666 25.7344C7.67729 26.0679 7.87515 26.4105 8.20858 26.4999L13.1302 27.8187C13.1195 28.0701 13.1423 28.3183 13.1955 28.5578L6.50202 31.6791C5.61869 32.0909 4.62773 32.1342 3.71183 31.8009C2.79593 31.4675 2.06471 30.7974 1.65273 29.9141C0.802457 28.0905 1.59417 25.9152 3.41772 25.0648C3.58515 24.9868 3.70946 24.8386 3.75727 24.6602C3.80508 24.4817 3.77152 24.2913 3.66552 24.1399C3.02324 23.2227 2.83799 22.0801 3.15736 21.0051C3.25566 20.6743 3.06711 20.3264 2.73625 20.2281C2.40545 20.1297 2.05747 20.3184 1.95916 20.6492C1.5968 21.869 1.71873 23.154 2.28639 24.2663C0.274167 25.575 -0.522924 28.2058 0.519969 30.4424C1.35025 32.223 3.12123 33.2707 4.9674 33.2707C5.65962 33.2707 6.36266 33.1233 7.03031 32.812L9.7887 31.5258L7.29555 33.2714C5.08284 34.8209 4.54311 37.8815 6.09248 40.0943C7.50792 42.1158 10.1847 42.741 12.3241 41.6526C12.8995 42.5403 13.7433 43.2145 14.7549 43.5827C15.3017 43.7817 15.8682 43.8807 16.4333 43.8807C17.1389 43.8807 17.8422 43.7262 18.5008 43.4191C19.8301 42.7993 20.7498 41.6545 21.1311 40.346C23.0929 42.3472 25.6644 43.6252 28.4986 43.9832C28.5883 43.9945 28.6778 44.0002 28.7671 44.0002C29.2961 44.0002 29.8096 43.8037 30.2073 43.4427C30.6749 43.0181 30.9325 42.4125 30.9142 41.7814C30.883 40.7148 30.0887 39.8423 29.0256 39.7068C27.9544 39.5702 26.9204 39.2199 25.9897 38.6913C26.7593 38.5897 27.4986 38.3047 28.1526 37.8467C29.2245 37.0962 29.94 35.9731 30.1672 34.6845C30.3541 33.6245 30.1923 32.5569 29.7113 31.6149C30.5989 31.0393 31.2729 30.1956 31.641 29.1842ZM15.579 29.5067C15.1606 29.3946 14.8109 29.1263 14.5944 28.7512C14.3778 28.3761 14.3203 27.9391 14.4324 27.5207C14.5445 27.1023 14.8128 26.7526 15.1879 26.5361C15.4378 26.3918 15.7151 26.3182 15.9961 26.3182C16.1369 26.3182 16.2787 26.3367 16.4184 26.3741C17.282 26.6055 17.7964 27.4964 17.565 28.3601C17.3337 29.2238 16.4429 29.7382 15.579 29.5067ZM14.0249 13.5945C14.9083 13.1826 15.8992 13.1392 16.815 13.4727C17.7309 13.806 18.4622 14.4761 18.8741 15.3594C18.9522 15.5268 19.1003 15.6511 19.2788 15.6989C19.4571 15.7467 19.6477 15.7132 19.799 15.6072C20.5974 15.0482 21.5659 14.8335 22.5256 15.0027C23.4854 15.172 24.3219 15.7049 24.881 16.5033C26.0351 18.1515 25.633 20.4313 23.9849 21.5854L17.9351 25.8215C17.7542 25.6556 17.5507 25.5118 17.3276 25.3953L18.6463 20.4737C18.7357 20.1403 18.5378 19.7976 18.2044 19.7083C17.8708 19.6188 17.5284 19.8168 17.439 20.1502L16.1203 25.0717C15.8688 25.061 15.6206 25.0838 15.3811 25.137L12.2599 18.4436C11.4096 16.6201 12.2014 14.4448 14.0249 13.5945ZM17.9725 42.2863C16.1492 43.1366 13.9737 42.3449 13.1234 40.5213C13.0453 40.3539 12.8971 40.2296 12.7187 40.1818C12.5403 40.1339 12.3498 40.1675 12.1985 40.2735C10.5502 41.4275 8.27045 41.0255 7.11644 39.3774C5.96242 37.7292 6.36441 35.4494 8.01252 34.2953L14.0623 30.0592C14.2432 30.2251 14.4467 30.3689 14.6698 30.4854L13.351 35.407C13.2617 35.7404 13.4595 36.0831 13.793 36.1724C13.8471 36.1869 13.9016 36.1939 13.9551 36.1939C14.2311 36.1939 14.4836 36.0097 14.5584 35.7305L15.8773 30.8083C15.9176 30.81 15.9579 30.8123 15.9981 30.8123C16.2082 30.8123 16.4153 30.7885 16.6164 30.7439L19.7375 37.4371C20.5878 39.2605 19.7961 41.436 17.9725 42.2863ZM29.6648 41.8179C29.6726 42.0835 29.5641 42.3384 29.3671 42.5172C29.1703 42.6959 28.9177 42.7761 28.6553 42.743C25.7481 42.3759 23.1487 40.9347 21.3189 38.6811C21.2833 38.0837 21.1383 37.4832 20.8704 36.9088L19.5842 34.1506L21.3298 36.6435C21.8759 37.4234 22.6198 38.0135 23.4807 38.3652C24.936 39.7728 26.8455 40.6888 28.8676 40.9466C29.3165 41.0038 29.6517 41.3702 29.6648 41.8179ZM28.5796 30.8158C28.4121 30.8938 28.2878 31.042 28.24 31.2205C28.1922 31.3989 28.2258 31.5894 28.3318 31.7407C28.8908 32.5391 29.1055 33.5074 28.9362 34.4673C28.767 35.4271 28.2341 36.2636 27.4356 36.8227C26.6373 37.3817 25.669 37.5963 24.7091 37.4271C23.7492 37.2579 22.9127 36.725 22.3537 35.9266L18.1176 29.8769C18.2836 29.696 18.4276 29.4926 18.5441 29.2694L23.4654 30.588C23.5195 30.6025 23.5739 30.6095 23.6275 30.6095C23.9034 30.6095 24.156 30.4253 24.2308 30.1461C24.3201 29.8127 24.1223 29.47 23.7888 29.3807L18.8672 28.0619C18.8779 27.8105 18.8551 27.5623 18.8019 27.3227L25.4955 24.2015C27.3189 23.3512 29.4943 24.1429 30.3447 25.9665C30.7567 26.8498 30.7999 27.8407 30.4665 28.7567C30.1331 29.6726 29.463 30.4039 28.5796 30.8158Z" fill="white"/>
<path d="M4.20361 19.1719C4.54879 19.1719 4.82861 18.8921 4.82861 18.5469C4.82861 18.2017 4.54879 17.9219 4.20361 17.9219C3.85844 17.9219 3.57861 18.2017 3.57861 18.5469C3.57861 18.8921 3.85844 19.1719 4.20361 19.1719Z" fill="white"/>
</g>
<defs>
<clipPath id="clip0_706_44740">
<rect width="32" height="32" fill="white" transform="translate(0 12)"/>
</clipPath>
</defs>
</svg>
