<svg width="32" height="32" viewBox="0 0 32 32" fill="none" xmlns="http://www.w3.org/2000/svg">
<path d="M27.1129 25.4933C27.5919 23.4008 27.9762 21.7381 28.2897 20.3826C29.5447 14.9544 29.5938 14.7426 29.5938 13.3053C29.5938 9.76425 28.0903 6.41056 25.3604 3.862C22.7313 1.40762 19.2122 0 15.7054 0C8.48556 0 2.40625 5.82856 2.40625 13.3728C2.40625 14.8344 2.44856 15.062 3.91569 21.4886C3.92038 21.5092 3.92644 21.5293 3.93362 21.5486C3.93788 21.5949 3.887 21.3567 4.83019 25.4948C3.77825 25.7521 2.99537 26.7028 2.99537 27.8329V29.5933C2.99537 30.9204 4.075 32 5.40212 32H8.93163C10.7439 32 12.2183 30.5276 12.2183 28.7178C12.2183 28.4732 12.1905 28.2268 12.1357 27.9856C11.4482 24.9552 10.9159 22.6234 10.4882 20.7496C8.99169 14.1939 8.97756 14.1246 8.97756 13.3389C8.97756 13.3366 8.97756 13.3341 8.9775 13.3314C8.97813 12.282 9.20812 11.2797 9.66119 10.3524C9.77481 10.1198 9.67837 9.83906 9.44581 9.72544C9.21312 9.61187 8.93244 9.70825 8.81894 9.94081C8.30206 10.9987 8.04 12.1409 8.04 13.3356C8.04 13.3382 8.04 13.3408 8.04006 13.3433C8.04006 14.2377 8.04256 14.2487 9.57425 20.9582C10.0019 22.8316 10.5341 25.1632 11.2215 28.1929C11.2608 28.3663 11.2808 28.5428 11.2808 28.7178C11.2808 30.0106 10.2269 31.0624 8.93163 31.0624H5.40212C4.592 31.0624 3.93287 30.4034 3.93287 29.5932V27.8328C3.93287 27.0227 4.592 26.3636 5.40212 26.3636H7.08838C7.34731 26.3636 7.55713 26.1537 7.55713 25.8948C7.55713 25.6359 7.34731 25.4261 7.08838 25.4261H5.77606C3.32544 14.6457 3.34375 14.9699 3.34375 13.3053C3.34375 6.48569 8.88919 0.9375 15.7054 0.9375C22.7255 0.9375 28.6562 6.60125 28.6562 13.3053C28.6562 14.6356 28.6322 14.7394 27.3763 20.1714C27.0558 21.5578 26.6608 23.2661 26.1666 25.4261H24.9117C24.6528 25.4261 24.4429 25.636 24.4429 25.8949C24.4429 26.1537 24.6528 26.3636 24.9117 26.3636H26.5403C27.3823 26.3636 28.0673 27.0486 28.0673 27.8906V29.5354C28.0673 30.3774 27.3823 31.0624 26.5403 31.0624H23.0097C21.7143 31.0624 20.6605 30.0107 20.6605 28.718C20.6605 28.5431 20.6804 28.3664 20.7198 28.193C23.8883 14.2253 23.9602 14.4713 23.9602 13.3053C23.9602 9.21994 20.1029 5.63631 15.7056 5.63631C13.4866 5.63631 11.3772 6.60006 9.91831 8.2805C9.74856 8.476 9.76944 8.77206 9.96494 8.94181C10.1604 9.1115 10.4565 9.09063 10.6262 8.89513C11.9069 7.41988 13.7583 6.57381 15.7056 6.57381C19.6034 6.57381 23.0227 9.71938 23.0227 13.3053C23.0227 13.9749 23.0041 14.0677 22.0315 18.2731C21.56 20.3119 20.8474 23.3929 19.8056 27.9856C19.7508 28.2269 19.7231 28.4734 19.7231 28.718C19.7231 30.5277 21.1975 31.9999 23.0098 31.9999H26.5404C27.8993 31.9999 29.0049 30.8944 29.0049 29.5354V27.8906C29.0047 26.7288 28.1966 25.7522 27.1129 25.4933Z" fill="white"/>
<path d="M7.79258 17.35C7.74346 17.1316 7.69771 16.9274 7.65521 16.7365C7.51058 16.0867 6.94433 15.6328 6.27827 15.6328C5.37527 15.6328 4.70546 16.4686 4.90108 17.3489C4.94408 17.5428 4.99021 17.7491 5.03958 17.9688C5.18527 18.6174 5.75139 19.0704 6.41627 19.0704C6.84714 19.0704 7.24858 18.8775 7.51777 18.541C7.78702 18.2045 7.88715 17.7704 7.79258 17.35ZM6.78571 17.9554C6.69546 18.0682 6.56071 18.133 6.41627 18.133C6.19314 18.133 6.00314 17.981 5.95421 17.7634C5.90508 17.5444 5.85914 17.3389 5.81621 17.1457C5.75071 16.8508 5.97502 16.5703 6.27827 16.5703C6.50171 16.5703 6.69158 16.7224 6.74008 16.9401C6.78271 17.1318 6.82864 17.3366 6.87796 17.5559C6.90971 17.6969 6.87608 17.8425 6.78571 17.9554Z" fill="white"/>
<path d="M25.6373 21.1653C25.368 20.8269 24.9656 20.6328 24.5331 20.6328C23.8718 20.6328 23.3063 21.0828 23.158 21.7271C23.0793 22.0688 22.9971 22.4268 22.9109 22.8021C22.7078 23.6865 23.3799 24.5287 24.2859 24.5287C24.9475 24.5287 25.5131 24.0784 25.6613 23.4336L25.9082 22.3605C26.0053 21.9392 25.9066 21.5036 25.6373 21.1653ZM24.9946 22.1501L24.7476 23.2236C24.6978 23.44 24.508 23.5912 24.2859 23.5912C24.141 23.5912 24.006 23.5261 23.9158 23.4128C23.8254 23.2993 23.7921 23.1532 23.8246 23.0118C23.9108 22.6367 23.993 22.2788 24.0716 21.9374C24.1214 21.7213 24.3111 21.5703 24.5331 21.5703C24.6783 21.5703 24.8134 21.6354 24.9038 21.749C24.9941 21.8625 25.0273 22.0087 24.9946 22.1501Z" fill="white"/>
<path d="M9.02877 22.7795L8.78914 21.7297C8.64183 21.0839 8.07614 20.6328 7.41358 20.6328C6.98171 20.6328 6.57958 20.8265 6.31039 21.1641C6.04121 21.5018 5.94189 21.9369 6.03808 22.3579L6.28333 23.4318C6.44102 24.1227 7.09252 24.5922 7.80096 24.5216C8.20921 24.4809 8.56402 24.2779 8.79983 23.95C9.03908 23.6173 9.12252 23.1907 9.02877 22.7795ZM8.03877 23.4025C7.96214 23.5089 7.84471 23.5751 7.70777 23.5887C7.46889 23.6124 7.25027 23.4552 7.19727 23.2231L6.95196 22.1491C6.91971 22.0078 6.95302 21.8618 7.04333 21.7485C7.13371 21.6352 7.26864 21.5702 7.41358 21.5702C7.63589 21.5702 7.82571 21.7214 7.87514 21.9381L8.11471 22.9879C8.14921 23.1393 8.12221 23.2864 8.03877 23.4025Z" fill="white"/>
<path d="M24.7183 5.87044C24.3852 5.51057 24.0272 5.16738 23.6543 4.85057C23.0462 4.33382 22.1003 4.41238 21.5963 5.10444C21.1675 5.69457 21.2635 6.52669 21.8149 6.99894C22.104 7.24638 22.3802 7.51294 22.6358 7.79101C23.117 8.31451 23.9215 8.38826 24.5072 7.96257C25.1893 7.46694 25.288 6.48576 24.7183 5.87044ZM23.9561 7.20413C23.7255 7.37176 23.4645 7.30713 23.326 7.15657C23.0452 6.85107 22.7419 6.55844 22.4247 6.28682C22.242 6.13038 22.2112 5.85307 22.3544 5.65601C22.5312 5.41332 22.8474 5.39526 23.0472 5.56501C23.3917 5.85776 23.7225 6.17482 24.0304 6.50738C24.2232 6.71551 24.1793 7.04194 23.9561 7.20413Z" fill="white"/>
<path d="M18.6429 2.25209C16.9282 1.81203 15.2015 1.75684 13.5107 2.08803C12.6855 2.24966 12.1823 3.10178 12.4472 3.91159C12.6671 4.58809 13.36 4.99547 14.0596 4.85847C16.3149 4.41734 17.8547 5.02734 18.2925 5.02734C18.8879 5.02734 19.4398 4.64428 19.6319 4.05303C19.8825 3.28184 19.4304 2.45416 18.6429 2.25209ZM18.7403 3.76334C18.6637 3.99909 18.4174 4.13647 18.1794 4.07553C17.3667 3.86809 16.532 3.76384 15.7051 3.76384C15.088 3.76384 14.4753 3.82191 13.8797 3.93841C13.6449 3.98416 13.4124 3.84822 13.3385 3.62084C13.2472 3.34197 13.4197 3.06116 13.6909 3.00803C15.2435 2.70384 16.8313 2.75503 18.4099 3.16016C18.6744 3.22803 18.8242 3.50516 18.7403 3.76334Z" fill="white"/>
<path d="M26.7893 16.1638C26.5201 15.8264 26.1181 15.6328 25.6864 15.6328C25.0245 15.6328 24.4591 16.0832 24.3115 16.7281C24.2677 16.9195 24.2206 17.124 24.1702 17.3429C23.9663 18.2274 24.6385 19.0704 25.5447 19.0704C26.2065 19.0705 26.7721 18.6201 26.9201 17.9753C26.9705 17.7559 27.0177 17.55 27.0618 17.3563C27.1576 16.9357 27.0583 16.501 26.7893 16.1638ZM26.1477 17.1481C26.1037 17.3413 26.0566 17.5467 26.0064 17.7655C25.9567 17.9819 25.7668 18.1329 25.5446 18.1329C25.3997 18.1329 25.2648 18.0679 25.1745 17.9544C25.0842 17.8409 25.051 17.6948 25.0836 17.5534C25.1342 17.3339 25.1813 17.1289 25.2252 16.9373C25.2747 16.7212 25.4643 16.5703 25.6863 16.5703C25.8311 16.5703 25.9661 16.6353 26.0564 16.7484C26.1466 16.8614 26.1798 17.0071 26.1477 17.1481Z" fill="white"/>
<path d="M10.3538 4.86987C9.85065 4.17555 8.89884 4.10018 8.29252 4.61887C7.89221 4.9613 7.51196 5.3348 7.16215 5.72905C6.61234 6.34899 6.71615 7.31355 7.39046 7.80343C7.98453 8.23424 8.79746 8.14749 9.28109 7.60224C9.54321 7.30668 9.82809 7.02674 10.1277 6.76993C10.6829 6.29405 10.7821 5.4593 10.3538 4.86987ZM9.51765 6.05812C9.18571 6.34255 8.87028 6.6528 8.57978 6.98012C8.43828 7.13968 8.17334 7.21305 7.94115 7.04474C7.71596 6.88111 7.67903 6.55918 7.86353 6.35118C8.18484 5.98899 8.53415 5.64586 8.9019 5.33136C9.1069 5.15593 9.4234 5.18368 9.59515 5.42049C9.7409 5.62118 9.70765 5.8953 9.51765 6.05812Z" fill="white"/>
<path d="M6.34945 9.87032C5.55389 9.61188 4.70558 10.0987 4.53045 10.9181C4.42202 11.4259 4.35108 11.9353 4.31352 12.4753C4.25689 13.2921 4.90302 13.9879 5.72077 13.9879C6.45677 13.9878 7.07533 13.4109 7.12914 12.6743C7.15827 12.2746 7.2117 11.8969 7.29264 11.5194C7.44614 10.8038 7.04064 10.0949 6.34945 9.87032ZM6.37608 11.3229C6.28595 11.7432 6.22639 12.1629 6.19414 12.6061C6.17564 12.8594 5.9722 13.0504 5.72089 13.0504C5.44589 13.0503 5.2297 12.8171 5.24889 12.5401C5.28327 12.0447 5.3482 11.5781 5.44739 11.1139C5.50608 10.8387 5.79064 10.6744 6.05983 10.7619C6.29245 10.8375 6.42839 11.0786 6.37608 11.3229Z" fill="white"/>
<path d="M27.6823 12.4653C27.6414 11.9379 27.5651 11.4388 27.4493 10.9398C27.3601 10.5556 27.1118 10.2239 26.7678 10.0298C26.4238 9.8356 26.0104 9.79447 25.6337 9.9171C24.9383 10.143 24.5256 10.874 24.6941 11.5813C24.7809 11.9458 24.8384 12.3075 24.8696 12.6868C24.9308 13.429 25.5353 13.9887 26.2758 13.9887C26.6674 13.9886 27.0444 13.8238 27.3103 13.5364C27.5773 13.248 27.7128 12.8577 27.6823 12.4653ZM26.2758 13.0511C26.0275 13.0511 25.8247 12.8613 25.8039 12.6097C25.7688 12.1827 25.704 11.7752 25.6061 11.3639C25.55 11.1285 25.6894 10.8847 25.9234 10.8086C26.2528 10.7262 26.4819 10.918 26.5361 11.1517C26.6411 11.6044 26.7103 12.0578 26.7476 12.5378C26.7692 12.8157 26.5523 13.0511 26.2758 13.0511Z" fill="white"/>
</svg>
