<svg width="32" height="32" viewBox="0 0 32 32" fill="none" xmlns="http://www.w3.org/2000/svg">
<g clip-path="url(#clip0_709_61533)">
<path d="M28.875 4.625H12.5798L13.177 4.29831C13.3774 4.18869 13.5021 3.97844 13.5021 3.75C13.5021 3.52156 13.3774 3.31125 13.177 3.20169L11.3175 2.18462L10.3005 0.325125C10.1909 0.124688 9.98056 0 9.75212 0C9.52369 0 9.31338 0.124688 9.20381 0.325125L8.18681 2.18462L6.32731 3.20163C6.12687 3.31125 6.00219 3.5215 6.00219 3.74994C6.00219 3.97837 6.12687 4.18869 6.32731 4.29825L6.9245 4.625H3.125C1.40188 4.625 0 6.02688 0 7.75V24.25C0 25.9731 1.40188 27.375 3.125 27.375H19.1724L18.5751 27.7017C18.3746 27.8112 18.25 28.0216 18.25 28.25C18.25 28.4784 18.3747 28.6888 18.5751 28.7983L20.4347 29.8153L21.4517 31.6748C21.5612 31.8753 21.7715 32 22 32C22.2285 32 22.4388 31.8753 22.5483 31.6749L23.5653 29.8154L25.4248 28.7984C25.6253 28.6887 25.75 28.4784 25.75 28.25C25.75 28.0216 25.6253 27.8112 25.4249 27.7017L24.8276 27.375H28.875C30.5981 27.375 32 25.9731 32 24.25V7.75C32 6.02688 30.5981 4.625 28.875 4.625ZM8.94719 3.1935C9.05206 3.13619 9.13831 3.04994 9.19563 2.94506L9.75212 1.92756L10.3086 2.94506C10.3659 3.04994 10.4522 3.13619 10.5571 3.1935L11.5746 3.75L10.5571 4.3065C10.4523 4.36381 10.366 4.45006 10.3087 4.55494L9.75219 5.57244L9.19569 4.55494C9.13837 4.45006 9.05212 4.36381 8.94725 4.3065L7.92969 3.75L8.94719 3.1935ZM3.125 5.875H8.49288L9.20381 7.17487C9.31344 7.37531 9.52369 7.5 9.75212 7.5C9.98056 7.5 10.1909 7.37531 10.3004 7.17487L11.0114 5.875H28.875C29.9089 5.875 30.75 6.71613 30.75 7.75V8.79613H18.6719C18.3267 8.79613 18.0469 9.07594 18.0469 9.42113C18.0469 9.76631 18.3267 10.0461 18.6719 10.0461H30.75V11.7961H1.25V10.0461H13.0469C13.3921 10.0461 13.6719 9.76631 13.6719 9.42113C13.6719 9.07594 13.3921 8.79613 13.0469 8.79613H1.25V7.75C1.25 6.71613 2.09113 5.875 3.125 5.875ZM22.8049 28.8065C22.7001 28.8638 22.6138 28.9501 22.5565 29.0549L22 30.0725L21.4435 29.055C21.3862 28.9501 21.2999 28.8639 21.1951 28.8066L20.1775 28.25L21.1951 27.6935C21.2999 27.6362 21.3862 27.5499 21.4435 27.4451L22 26.4275L22.5565 27.445C22.6138 27.5499 22.7001 27.6361 22.8049 27.6934L23.8224 28.2499L22.8049 28.8065ZM28.875 26.125H23.2593L22.5483 24.8251C22.4387 24.6247 22.2284 24.5 22 24.5C21.7716 24.5 21.5612 24.6247 21.4517 24.8251L20.7407 26.125H3.125C2.09113 26.125 1.25 25.2839 1.25 24.25V13.0461H30.75V24.25C30.75 25.2839 29.9089 26.125 28.875 26.125Z" fill="white"/>
<path d="M11.4644 15.9609C11.1192 15.9609 10.8394 16.2407 10.8394 16.5859V22.5859C10.8394 22.9311 11.1192 23.2109 11.4644 23.2109C11.8095 23.2109 12.0894 22.9311 12.0894 22.5859V16.5859C12.0894 16.2407 11.8095 15.9609 11.4644 15.9609Z" fill="white"/>
<path d="M9.16135 16.004C8.83385 15.8952 8.47998 16.0725 8.37117 16.4L6.86685 20.9284L5.28842 16.3812C5.17517 16.0551 4.8191 15.8825 4.49298 15.9957C4.16692 16.1088 3.99429 16.465 4.10748 16.7911L6.16042 22.7053C6.26817 23.0084 6.5556 23.2111 6.87692 23.2111H6.88217C7.20554 23.2088 7.49279 23.0017 7.59829 22.6913L9.55735 16.7942C9.66623 16.4666 9.48892 16.1128 9.16135 16.004Z" fill="white"/>
<path d="M15.635 15.9609H13.9644C13.7982 15.9609 13.639 16.0271 13.5217 16.1447C13.4049 16.2618 13.3394 16.4205 13.3394 16.5859L13.3394 22.5859C13.3394 22.9311 13.6192 23.2109 13.9644 23.2109C14.3095 23.2109 14.5894 22.9311 14.5894 22.5859V20.6013C14.9556 20.5994 15.3956 20.5973 15.635 20.5973C16.9315 20.5973 17.9864 19.5574 17.9864 18.2791C17.9864 17.0009 16.9315 15.9609 15.635 15.9609ZM15.635 19.3473C15.3966 19.3473 14.9624 19.3493 14.5974 19.3512C14.5955 18.9749 14.5922 17.6033 14.5912 17.2109H15.635C16.232 17.2109 16.7364 17.7001 16.7364 18.2791C16.7364 18.8582 16.232 19.3473 15.635 19.3473Z" fill="white"/>
<path d="M28.9985 18.7206L28.9991 18.7194L27.3331 16.1841C27.2175 16.0082 27.0212 15.9023 26.8108 15.9023H22.6309C22.4205 15.9023 22.2242 16.0082 22.1086 16.1841L20.4425 18.7194L20.4432 18.7206C20.4224 18.7523 20.4034 18.7854 20.3884 18.8213C20.291 19.0537 20.3428 19.3217 20.5195 19.5012L24.2755 23.3152C24.393 23.4345 24.5534 23.5016 24.7209 23.5016C24.8883 23.5016 25.0487 23.4344 25.1662 23.3152L28.9222 19.5012C29.0989 19.3217 29.1507 19.0537 29.0534 18.8213C29.0383 18.7854 29.0192 18.7523 28.9985 18.7206ZM22.968 17.1523H26.4736L27.3182 18.4376H22.1234L22.968 17.1523ZM24.7208 21.9858L22.4575 19.6877H26.9841L24.7208 21.9858Z" fill="white"/>
<path d="M15.8594 10.0469C16.2046 10.0469 16.4844 9.76705 16.4844 9.42188C16.4844 9.0767 16.2046 8.79688 15.8594 8.79688C15.5142 8.79688 15.2344 9.0767 15.2344 9.42188C15.2344 9.76705 15.5142 10.0469 15.8594 10.0469Z" fill="white"/>
</g>
<defs>
<clipPath id="clip0_709_61533">
<rect width="32" height="32" fill="white"/>
</clipPath>
</defs>
</svg>
